<?xml version="1.0" encoding="UTF-8"?><svg id="a" xmlns="http://www.w3.org/2000/svg" viewBox="0 0 96 96"><defs><style>.b{fill:#d44421;}.c{fill:#2bbbde;}</style></defs><path class="c" d="M96,48c0,26.51-21.49,48-48,48-20.46,0-37.93-12.8-44.83-30.83,4.95,6,12.44,9.83,20.83,9.83,14.57,0,26.45-11.55,26.97-26h38.21l-3.25,3.24,1.41,1.42,5.66-5.66-5.66-5.66-1.41,1.42,3.25,3.24H50.97c-.52-14.45-12.4-26-26.97-26-8.39,0-15.88,3.83-20.83,9.83C10.07,12.8,27.54,0,48,0c26.51,0,48,21.49,48,48Z"/><path class="b" d="M6.82,49H47.98c-.53,12.79-11.07,23-23.98,23S0,61.25,0,48,10.75,24,24,24s23.45,10.21,23.98,23H6.82l3.25-3.24-1.41-1.42-5.66,5.66,5.66,5.66,1.41-1.42-3.25-3.24Z"/></svg>