<?xml version="1.0" encoding="UTF-8"?><svg id="a" xmlns="http://www.w3.org/2000/svg" viewBox="0 0 96 96"><defs><style>.b{fill:#d44421;}.c{fill:#fff;}.d{fill:#ded13a;}.e{fill:#2bbbde;}</style></defs><path class="d" d="M6.82,49h6.17c-.53,52.56-43.3,95-95.99,95s-96-42.98-96-96S-136.02-48-83-48,12.46-5.56,12.99,47H6.82l3.25-3.24-1.41-1.42-5.66,5.66,5.66,5.66,1.41-1.42-3.25-3.24Z"/><path class="e" d="M29.03,49h35.94c-.51,9.47-8.36,17-17.97,17s-17.46-7.53-17.97-17Z"/><path class="e" d="M64.97,47H29.03c.51-9.47,8.36-17,17.97-17s17.46,7.53,17.97,17Z"/><path class="b" d="M105,48c0,6.63-5.37,12-12,12s-11.45-4.84-11.96-11h8.14l-3.25,3.24,1.41,1.42,5.66-5.66-5.66-5.66-1.41,1.42,3.25,3.24h-8.14c.51-6.16,5.67-11,11.96-11,6.63,0,12,5.37,12,12Z"/><path class="c" d="M29.03,47c-.02,.33-.03,.67-.03,1s.01,.67,.03,1H12.99c.01-.33,.01-.67,.01-1s0-.67-.01-1H29.03Z"/><path class="c" d="M81,48c0,.34,.01,.67,.04,1h-16.07c.02-.33,.03-.67,.03-1s-.01-.67-.03-1h16.07c-.03,.33-.04,.66-.04,1Z"/></svg>