<svg id="Calque_1" data-name="Calque 1" xmlns="http://www.w3.org/2000/svg" viewBox="0 0 530.42 219.75"><defs><style>.cls-1{fill:#fafafa}</style></defs><path class="cls-1" d="M.35 35.08h40.93a95.39 95.39 0 0 1 29.82 4.39A59 59 0 0 1 94 53a61.09 61.09 0 0 1 14.68 23.23q5.2 14.11 5.2 33.53t-5.2 33.76a63.63 63.63 0 0 1-14.57 23.7 59.18 59.18 0 0 1-22.31 14 84.61 84.61 0 0 1-28.67 4.63H.35Zm39.08 123.24a48.67 48.67 0 0 0 16.07-2.54 30.27 30.27 0 0 0 12.5-8.21 38.71 38.71 0 0 0 8.09-14.92q2.9-9.24 2.9-22.89 0-13.41-2.9-22.54A36.58 36.58 0 0 0 68 72.65a29.4 29.4 0 0 0-12.5-7.75 53 53 0 0 0-16.07-2.31h-4.86v95.73ZM125 35.08h34.68l4.86 80.23q.22 9.72.46 19.19t.46 19.2h.7q1.85-9.72 4-19.2t4-19.19l10.4-41.85h20.58l9.95 41.85q1.84 9.25 3.93 19T223 153.7h.92q.47-9.72.58-19.31t.58-19.08l4.39-80.23h32.37l-18.7 150.76h-35.61l-9.48-47.41q-1.4-7.16-2.55-14.68t-1.62-14.22h-.69q-.69 6.7-1.73 14.22T189 138.43l-9 47.41h-34.91ZM315.05 63.75H270V35.08h124.4v28.67h-45.13v122.09h-34.22Z"/><path style="fill:#ffdc00" d="M427.65 185.84h102.77v33.91H427.65z"/></svg>