<?xml version="1.0" encoding="utf-8"?>
<!-- Generator: Adobe Illustrator 26.0.3, SVG Export Plug-In . SVG Version: 6.00 Build 0)  -->
<svg version="1.1"
	 id="Calque_1" xmlns:cc="http://creativecommons.org/ns#" xmlns:dc="http://purl.org/dc/elements/1.1/" xmlns:rdf="http://www.w3.org/1999/02/22-rdf-syntax-ns#" xmlns:svg="http://www.w3.org/2000/svg"
	 xmlns="http://www.w3.org/2000/svg" xmlns:xlink="http://www.w3.org/1999/xlink" x="0px" y="0px" viewBox="0 0 1000 1000"
	 style="enable-background:new 0 0 1000 1000;" xml:space="preserve">
<style type="text/css">
	.st0{fill-rule:evenodd;clip-rule:evenodd;fill:#D44421;}
</style>
<g id="g003">
	<path class="st0" d="M500,0C223.8,0,0,223.9,0,500s223.8,500,500,500s500-223.9,500-500S776.1,0,500,0z M821.8,729.6
		c0,24-19.6,43.6-43.6,43.6H701c-24,0-43.6-19.6-43.6-43.6v-72.5c0-24-19.6-43.7-43.6-43.7h-66.1c-24,0-43.6,0.1-43.6,0.3
		c0,0.1-19.6,0.3-43.6,0.3h-72.3c-24,0-43.6,19.6-43.6,43.6v76.1c0,24-19.6,43.6-43.6,43.6h-77.2c-24,0-43.6-19.6-43.6-43.6v-77.2
		c0-24,19.6-43.6,43.6-43.6h72.3c24,0,43.6-19.6,43.6-43.6v-76.1c0-24,0.1-43.6,0.2-43.6c0.1,0,0.1-19.6,0.1-43.6v-77.2
		c0-24,19.6-43.6,43.6-43.6h77.2c24,0,43.6,19.6,43.6,43.6v76.6c0,24,19.6,43.6,43.6,43.6h70.5c24,0,43.6,19.6,43.6,43.6v72.5
		c0,24,19.6,43.7,43.6,43.7h72.6c24,0,43.6,19.6,43.6,43.6V729.6z M666.3,118.6c9.5,103.3,17.2,111,120.5,120.6
		c-103.3,9.5-111.1,17.9-120.5,120.5c-9.4-103.1-17.2-111-120.6-120.5C649.1,229.6,656.8,221.9,666.3,118.6z"/>
</g>
</svg>
