<?xml version="1.0" encoding="UTF-8"?><svg id="a" xmlns="http://www.w3.org/2000/svg" viewBox="0 0 96 96"><defs><style>.b{fill:#d44421;}.c{fill:#fff;}.d{fill:#2bbbde;}</style></defs><g><circle class="d" cx="72" cy="63" r="12"/><g><polygon class="c" points="72 48 75.54 44.46 74.48 43.4 72.75 45.13 72.75 24 71.25 24 71.25 45.13 69.52 43.41 68.46 44.47 72 48"/><polygon class="c" points="62.93 45 66.46 41.46 65.4 40.4 63.68 42.13 63.68 21 62.18 21 62.18 42.13 60.45 40.41 59.39 41.47 62.93 45"/><polygon class="c" points="81.07 45 84.61 41.46 83.55 40.4 81.82 42.13 81.82 21 80.32 21 80.32 42.13 78.6 40.41 77.54 41.47 81.07 45"/></g></g><g><circle class="b" cx="24" cy="63" r="12"/><g><polygon class="c" points="23.99 48 27.53 44.46 26.47 43.4 24.75 45.12 24.75 33.5 23.25 33.5 23.25 45.14 21.53 43.41 20.47 44.47 23.99 48"/><polygon class="c" points="33.05 45 36.59 41.46 35.53 40.4 33.81 42.12 33.81 30.5 32.31 30.5 32.31 42.14 30.59 40.41 29.53 41.47 33.05 45"/><polygon class="c" points="14.93 45 18.47 41.46 17.41 40.4 15.69 42.12 15.69 30.5 14.19 30.5 14.19 42.14 12.47 40.41 11.41 41.47 14.93 45"/></g></g></svg>