<?xml version="1.0" encoding="utf-8"?>
<!-- Generator: Adobe Illustrator 26.1.0, SVG Export Plug-In . SVG Version: 6.00 Build 0)  -->
<svg version="1.1" id="Calque_1" xmlns:serif="http://www.serif.com/"
	 xmlns="http://www.w3.org/2000/svg" xmlns:xlink="http://www.w3.org/1999/xlink" x="0px" y="0px" viewBox="0 0 42.7 42.7"
	 style="enable-background:new 0 0 42.7 42.7;" xml:space="preserve">
<style type="text/css">
	.st0{fill:#FFFFFF;}
</style>
<g transform="matrix(1.01619,0,0,1.01619,44,43.8384)">
	<path class="st0" d="M-22.3-43.1c-5.7,0-6.4,0-8.7,0.1c-2.2,0.1-3.8,0.5-5.1,1c-1.4,0.5-2.6,1.3-3.7,2.4s-1.9,2.3-2.4,3.7
		c-0.5,1.3-0.9,2.9-1,5.1c-0.1,2.2-0.1,3-0.1,8.7c0,5.7,0,6.4,0.1,8.7c0.1,2.2,0.5,3.8,1,5.1c0.5,1.4,1.3,2.6,2.4,3.7
		c1.2,1.2,2.3,1.9,3.7,2.4c1.3,0.5,2.9,0.9,5.1,1c2.2,0.1,3,0.1,8.7,0.1c5.7,0,6.4,0,8.7-0.1c2.2-0.1,3.8-0.5,5.1-1
		C-7.2-2.8-6-3.5-4.8-4.7C-3.7-5.8-3-7-2.4-8.4c0.5-1.3,0.9-2.9,1-5.1c0.1-2.2,0.1-3,0.1-8.7c0-5.7,0-6.4-0.1-8.7
		c-0.1-2.2-0.5-3.8-1-5.1c-0.5-1.4-1.3-2.6-2.4-3.7C-6-40.8-7.2-41.5-8.6-42c-1.3-0.5-2.9-0.9-5.1-1C-15.9-43.1-16.6-43.1-22.3-43.1
		z M-22.3-39.4c5.6,0,6.3,0,8.5,0.1c2,0.1,3.2,0.4,3.9,0.7c1,0.4,1.7,0.8,2.4,1.6c0.7,0.7,1.2,1.4,1.6,2.4c0.3,0.7,0.6,1.9,0.7,3.9
		c0.1,2.2,0.1,2.9,0.1,8.5c0,5.6,0,6.3-0.1,8.5c-0.1,2-0.4,3.2-0.7,3.9c-0.4,1-0.8,1.7-1.6,2.4c-0.7,0.7-1.4,1.2-2.4,1.6
		c-0.7,0.3-1.9,0.6-3.9,0.7C-16-5-16.7-4.9-22.3-4.9c-5.6,0-6.3,0-8.5-0.1c-2-0.1-3.2-0.4-3.9-0.7c-1-0.4-1.7-0.8-2.4-1.6
		c-0.7-0.7-1.2-1.4-1.6-2.4c-0.3-0.7-0.6-1.9-0.7-3.9c-0.1-2.2-0.1-2.9-0.1-8.5c0-5.6,0-6.3,0.1-8.5c0.1-2,0.4-3.2,0.7-3.9
		c0.4-1,0.8-1.7,1.6-2.4c0.7-0.7,1.4-1.2,2.4-1.6c0.7-0.3,1.9-0.6,3.9-0.7C-28.6-39.3-27.9-39.4-22.3-39.4z"/>
	<path class="st0" d="M-22.3-15.1c-3.9,0-7-3.1-7-7c0-3.9,3.1-7,7-7c3.9,0,7,3.1,7,7C-15.3-18.3-18.4-15.1-22.3-15.1z M-22.3-32.9
		c-6,0-10.8,4.8-10.8,10.8c0,6,4.8,10.8,10.8,10.8c6,0,10.8-4.8,10.8-10.8C-11.5-28.1-16.4-32.9-22.3-32.9z"/>
	<path class="st0" d="M-8.6-33.4c0,1.4-1.1,2.5-2.5,2.5c-1.4,0-2.5-1.1-2.5-2.5s1.1-2.5,2.5-2.5C-9.7-35.9-8.6-34.7-8.6-33.4z"/>
</g>
</svg>
