<?xml version="1.0" encoding="utf-8"?>
<!-- Generator: Adobe Illustrator 26.1.0, SVG Export Plug-In . SVG Version: 6.00 Build 0)  -->
<svg version="1.1" id="a" xmlns="http://www.w3.org/2000/svg" xmlns:xlink="http://www.w3.org/1999/xlink" x="0px" y="0px"
	 viewBox="0 0 200 43.2" style="enable-background:new 0 0 200 43.2;" xml:space="preserve">
<style type="text/css">
	.st0{fill:#FFFFFF;}
</style>
<g>
	<path class="st0" d="M0,42.7V0h17.3c3.1,0,5.9,0.6,8.1,1.7c2.2,1.1,4,2.7,5.2,4.6c1.2,2,1.8,4.2,1.8,6.8c0,2.8-0.7,5.3-2.1,7.4
		s-3.4,3.6-6.1,4.6l9.3,17.6h-9.9l-8.5-16.4H8.9v16.4H0z M17.2,7.7H8.9V19h8.3c2,0,3.5-0.5,4.6-1.6c1.1-1.1,1.7-2.4,1.7-4
		s-0.6-3-1.7-4.1S19.1,7.7,17.2,7.7L17.2,7.7z"/>
	<path class="st0" d="M120.9,42.7l-11.2-30.6h8.8l7.2,20.7l6.9-20.7h8.8L130,42.7H120.9L120.9,42.7z"/>
	<path class="st0" d="M159.7,43.2c-2.7,0-5-0.5-7-1.3c-2-0.9-3.6-2.1-4.8-3.6c-1.3-1.5-2.2-3.2-2.9-5.1c-0.6-1.9-0.9-3.8-0.9-5.8
		s0.3-3.8,0.9-5.7c0.6-1.9,1.5-3.6,2.8-5.1s2.8-2.8,4.8-3.7c1.9-0.9,4.2-1.4,6.9-1.4c2.8,0,5.3,0.6,7.5,1.8s3.9,3,5.1,5.4
		c1.2,2.4,1.8,5.3,1.8,8.7v2.1h-20.9c0.1,1.8,0.8,3.4,1.9,4.8s2.8,2,4.9,2c1.2,0,2.2-0.2,2.9-0.5s1.3-0.8,1.8-1.3
		c0.4-0.5,0.8-1.1,1.1-1.9h8.1c-0.4,1.4-0.8,2.7-1.3,3.7c-0.5,1-1.3,2.1-2.3,3.1c-1,1-2.4,1.9-4,2.6S162.1,43.2,159.7,43.2
		L159.7,43.2z M152.9,24.4h12.5c-0.1-2.1-0.8-3.7-1.9-4.7c-1.1-1-2.6-1.5-4.3-1.5s-3.1,0.5-4.3,1.6C153.7,20.9,153,22.4,152.9,24.4
		L152.9,24.4z"/>
	<path class="st0" d="M180.1,42.7V12.1h8.7v4.4h0.3c0.4-0.8,0.8-1.6,1.4-2.4s1.5-1.4,2.5-1.9c1.1-0.5,2.5-0.8,4.1-0.8
		c0.8,0,1.8,0.1,2.8,0.3v8.6c-1.1-0.2-2.1-0.4-3-0.4c-2.7,0-4.8,0.7-6.1,2.2s-2,3.9-2,7.2v13.1L180.1,42.7L180.1,42.7z"/>
</g>
<path class="st0" d="M91.6,20.1c4,0,7.3,3.3,7.3,7.3s-3.3,7.3-7.3,7.3H52.5c-4,0-7.3-3.3-7.3-7.3s3.3-7.3,7.3-7.3H91.6 M91.6,12.1
	H52.5c-8.4,0-15.3,6.8-15.3,15.3l0,0c0,8.4,6.8,15.3,15.3,15.3h39.2c8.4,0,15.3-6.8,15.3-15.3l0,0C106.9,19,100.1,12.1,91.6,12.1
	C91.6,12.1,91.6,12.1,91.6,12.1z"/>
</svg>
