<?xml version="1.0" encoding="UTF-8"?><svg id="a" xmlns="http://www.w3.org/2000/svg" viewBox="0 0 96 96"><defs><style>.b{fill:#d44421;}.c{fill:#2bbbde;}</style></defs><path class="c" d="M94.67,88.89l-9.75-52c-.53-2.83-3.01-4.89-5.9-4.89h-19.71c4.08-3.3,6.69-8.34,6.69-14C66,8.06,57.94,0,48,0S30,8.06,30,18c0,5.66,2.61,10.7,6.69,14H16.98c-2.89,0-5.37,2.06-5.9,4.89L1.33,88.89c-.69,3.7,2.14,7.11,5.9,7.11h28.6c-.2-.63-.23-1.3-.11-1.97l1.95-10.4c.34-1.86,1.88-3.24,3.73-3.41,.1-3.56,3.02-6.42,6.6-6.42s6.5,2.86,6.6,6.42c1.85,.17,3.39,1.55,3.73,3.41l1.95,10.4c.12,.67,.09,1.34-.11,1.97h28.6c3.76,0,6.59-3.41,5.9-7.11ZM48,27c-4.97,0-9-4.03-9-9s4.03-9,9-9,9,4.03,9,9-4.03,9-9,9Z"/><path class="b" d="M57.33,94.58l-1.95-10.4c-.1-.57-.6-.98-1.18-.98h-3.94c.82-.66,1.34-1.67,1.34-2.8,0-1.99-1.61-3.6-3.6-3.6s-3.6,1.61-3.6,3.6c0,1.13,.52,2.14,1.34,2.8h-3.94c-.58,0-1.08,.41-1.18,.98l-1.95,10.4c-.14,.74,.42,1.42,1.18,1.42h16.3c.76,0,1.32-.68,1.18-1.42Zm-9.33-12.38c-.99,0-1.8-.81-1.8-1.8s.81-1.8,1.8-1.8,1.8,.81,1.8,1.8-.81,1.8-1.8,1.8Z"/></svg>