<?xml version="1.0" encoding="UTF-8"?><svg id="a" xmlns="http://www.w3.org/2000/svg" viewBox="0 0 96 96"><defs><style>.b{fill:#d44421;}.c{fill:#fff;}.d{fill:#2bbbde;}</style></defs><polygon class="d" points="96 0 96 96 50.85 96 50.85 88.34 89.18 88.34 85.93 91.59 87.34 93 93 87.34 87.34 81.69 85.93 83.1 89.17 86.34 50.85 86.34 50.85 45.15 9.66 45.15 9.66 6.83 12.9 10.07 14.31 8.66 8.66 3 7.25 4.42 3 8.66 4.41 10.07 7.66 6.82 7.66 45.15 0 45.15 0 0 96 0"/><rect class="b" x="9.66" y="48" width="38.34" height="38.34"/><polygon class="b" points="7.66 88.34 48 88.34 48 96 0 96 0 48 7.66 48 7.66 88.34"/><polygon class="c" points="8.66 3 7.25 4.42 7.24 4.41 8.66 3"/></svg>