<?xml version="1.0" encoding="UTF-8"?><svg id="a" xmlns="http://www.w3.org/2000/svg" viewBox="0 0 96 96"><defs><style>.b{fill:#d44421;}.c{fill:#fff;}.d{fill:#2bbbde;}</style></defs><path class="c" d="M30,61.6V18c0-3.31-2.69-6-6-6s-6,2.69-6,6V61.6c-3.58,2.07-6,5.95-6,10.4,0,6.63,5.37,12,12,12,.21,0,.41-.01,.62-.03,6.34-.32,11.38-5.55,11.38-11.97,0-4.45-2.42-8.33-6-10.4Zm-.46,18.72c-1.59,1.06-3.49,1.68-5.54,1.68-.14,0-.28,0-.41-.02-1.89-.07-3.65-.67-5.13-1.66-2.68-1.79-4.46-4.86-4.46-8.32,0-3.26,1.57-6.17,4-7.99,.61-.47,1.28-.86,2-1.17V18c0-2.21,1.79-4,4-4s4,1.79,4,4V62.84c.72,.31,1.39,.7,2,1.17,2.43,1.82,4,4.73,4,7.99,0,3.46-1.78,6.53-4.46,8.32Z"/><path class="b" d="M26,64.25V28c0-.55-.22-1.05-.59-1.41-.36-.37-.86-.59-1.41-.59-1.1,0-2,.9-2,2v36.25c-3.45,.89-6,4.02-6,7.75,0,4.42,3.58,8,8,8s8-3.58,8-8c0-3.73-2.55-6.86-6-7.75Zm3,8.75h-10c-.55,0-1-.45-1-1s.45-1,1-1h10c.55,0,1,.45,1,1s-.45,1-1,1Z"/><g><path class="c" d="M78,61.6V18c0-3.31-2.69-6-6-6s-6,2.69-6,6V61.6c-3.58,2.07-6,5.95-6,10.4,0,6.63,5.37,12,12,12,.21,0,.41-.01,.62-.03,6.34-.32,11.38-5.55,11.38-11.97,0-4.45-2.42-8.33-6-10.4Zm-.46,18.72c-1.59,1.06-3.49,1.68-5.54,1.68-.14,0-.28,0-.41-.02-1.89-.07-3.65-.67-5.13-1.66-2.68-1.79-4.46-4.86-4.46-8.32,0-3.26,1.57-6.17,4-7.99,.61-.47,1.28-.86,2-1.17V18c0-2.21,1.79-4,4-4s4,1.79,4,4V62.84c.72,.31,1.39,.7,2,1.17,2.43,1.82,4,4.73,4,7.99,0,3.46-1.78,6.53-4.46,8.32Z"/><path class="d" d="M74,64.25v-6.31c0-1.07-.87-1.94-1.94-1.94h-.12c-1.07,0-1.94,.87-1.94,1.94v6.31c-3.45,.89-6,4.02-6,7.75,0,4.42,3.58,8,8,8s8-3.58,8-8c0-3.73-2.55-6.86-6-7.75Zm3,8.75h-4v4c0,.55-.45,1-1,1s-1-.45-1-1v-4h-4c-.55,0-1-.45-1-1s.45-1,1-1h4v-4c0-.55,.45-1,1-1s1,.45,1,1v4h4c.55,0,1,.45,1,1s-.45,1-1,1Z"/></g></svg>